<svg width="100" height="100" viewBox="0 0 100 100" fill="none" xmlns="http://www.w3.org/2000/svg">
<path d="M67.8317 74.9027C65.8791 72.9501 65.8791 69.7843 67.8317 67.8317C69.7843 65.879 72.9501 65.879 74.9027 67.8317L96.4525 89.3814C98.4051 91.334 98.4051 94.4999 96.4525 96.4525C94.4999 98.4051 91.3341 98.4051 89.3814 96.4525L67.8317 74.9027Z" fill="#2697FF"/>
<path d="M73.0932 87.2951C75.3893 89.5912 75.0026 93.4315 72.0904 94.868C65.429 98.1539 57.9301 100 50 100C22.3857 100 0 77.6143 0 50C0 22.3857 22.3857 0 50 0C77.6143 0 100 22.3857 100 50C100 57.93 98.1539 65.4289 94.868 72.0903C93.4315 75.0024 89.5912 75.3892 87.2951 73.093C85.6402 71.4382 85.3471 68.8869 86.329 66.7624C88.6853 61.664 90 55.9856 90 50C90 27.9086 72.0914 10 50 10C27.9086 10 10 27.9086 10 50C10 72.0914 27.9086 90 50 90C55.9856 90 61.6641 88.6853 66.7625 86.3289C68.887 85.3471 71.4383 85.6402 73.0932 87.2951Z" fill="#2697FF"/>
</svg>
